<?xml version="1.0" standalone="no"?>
<!DOCTYPE svg PUBLIC "-//W3C//DTD SVG 20010904//EN"
 "http://www.w3.org/TR/2001/REC-SVG-20010904/DTD/svg10.dtd">
<svg version="1.0" xmlns="http://www.w3.org/2000/svg"
 width="260.000000pt" height="260.000000pt" viewBox="0 0 260.000000 260.000000"
 preserveAspectRatio="xMidYMid meet">
<metadata>
Created by potrace 1.11, written by Peter Selinger 2001-2013
</metadata>
<g transform="translate(0.000000,260.000000) scale(0.100000,-0.100000)"
fill="#000000" stroke="none">
<path d="M1456 2035 c-19 -8 -55 -11 -101 -8 -56 4 -76 1 -87 -11 -11 -10 -19
-11 -26 -4 -7 7 -16 6 -30 -1 -11 -6 -33 -11 -48 -11 -35 0 -84 -33 -115 -79
-21 -31 -24 -45 -22 -120 1 -47 -2 -91 -8 -97 -16 -19 -13 -161 4 -184 13 -18
16 -19 27 -5 7 8 28 15 48 15 29 0 43 -8 78 -45 52 -54 71 -110 54 -161 -6
-18 -16 -37 -22 -40 -6 -4 -5 3 2 17 10 21 10 22 -3 7 -24 -31 -62 -22 -104
23 -21 22 -44 52 -51 65 -7 13 -15 24 -18 24 -3 0 -2 -5 2 -12 4 -7 15 -48 24
-93 9 -44 20 -80 25 -80 5 0 13 15 17 33 7 28 11 31 28 22 10 -5 30 -10 44
-10 31 0 33 -18 6 -48 -11 -12 -20 -28 -20 -36 0 -8 -4 -17 -8 -20 -20 -12 -3
-49 38 -86 24 -22 48 -40 52 -40 4 0 23 -16 42 -35 20 -19 42 -35 49 -35 8 0
26 -11 41 -25 26 -24 26 -26 10 -52 l-16 -28 24 28 c24 27 25 27 45 10 12 -10
31 -26 43 -36 35 -29 78 -41 95 -27 45 37 85 187 55 205 -12 7 -4 25 12 25 14
0 4 -280 -12 -332 -15 -50 -114 -138 -209 -186 -66 -32 -84 -37 -145 -37 -53
1 -81 6 -111 22 -49 27 -104 72 -88 73 7 0 17 18 23 40 9 32 8 46 -5 69 -14
28 -14 30 5 36 11 4 20 11 20 16 0 14 26 11 39 -4 7 -10 7 -17 0 -24 -12 -12
-4 -33 11 -33 5 0 14 10 21 21 9 18 7 26 -9 49 -12 15 -18 31 -15 34 4 4 12
22 18 41 l12 34 -63 6 c-34 4 -67 4 -73 0 -7 -4 -11 3 -11 16 0 12 -15 41 -34
64 -29 35 -39 41 -64 37 -20 -2 -33 -12 -37 -26 -6 -16 -8 -17 -11 -5 -10 35
14 67 70 92 31 14 56 28 56 31 0 14 -130 -57 -244 -134 -126 -84 -156 -117
-124 -136 6 -4 8 -3 4 4 -3 6 -2 13 4 17 6 4 8 10 5 15 -3 4 3 14 12 21 18 15
17 14 -4 -39 -4 -8 0 -10 12 -6 13 5 16 3 13 -7 -3 -8 -13 -13 -23 -11 -9 2
-14 -1 -11 -6 3 -5 -2 -9 -12 -8 -21 1 -33 27 -20 44 7 8 7 12 0 12 -13 0 -55
-86 -49 -102 2 -7 7 2 11 20 9 37 11 38 33 16 9 -9 22 -12 32 -8 9 3 21 7 28
7 7 0 10 4 8 8 -3 3 2 12 9 18 9 8 16 8 20 2 4 -5 2 -12 -4 -16 -5 -3 -10 -12
-10 -18 1 -7 10 -1 20 12 21 24 26 76 10 101 -9 15 4 40 21 40 5 0 9 -72 9
-160 0 -88 -3 -160 -6 -160 -15 0 -183 93 -187 103 -2 7 -3 5 -3 -3 2 -35 350
-190 561 -250 168 -48 219 -48 420 -5 94 19 182 38 198 42 27 5 27 6 27 85 l0
80 34 -41 c19 -22 36 -46 38 -53 3 -9 12 -8 31 5 32 21 35 15 6 -14 -11 -11
-18 -23 -16 -26 9 -9 115 26 119 39 2 7 1 51 -2 98 -4 47 -7 73 -8 58 -1 -16
-6 -28 -11 -28 -10 0 -21 61 -20 115 l1 40 14 -50 14 -50 -6 45 c-6 57 -45
107 -112 141 -196 103 -210 113 -193 133 8 10 -3 7 -30 -7 -34 -18 -45 -31
-50 -56 -9 -45 -14 -47 -42 -17 -22 24 -23 29 -13 68 9 35 18 44 51 58 22 10
58 20 80 23 37 6 38 5 21 -8 -17 -13 -18 -17 -6 -28 9 -8 11 -9 6 0 -4 7 2 17
14 23 13 7 20 21 20 40 0 25 4 30 23 30 24 0 47 17 47 34 0 6 -5 3 -11 -7 -8
-14 -18 -17 -40 -12 -21 5 -29 3 -27 -5 2 -7 -7 -14 -20 -16 -57 -10 -172 -84
-172 -112 -1 -9 -7 -28 -14 -41 -13 -23 -13 -23 -20 22 -6 40 -17 55 -92 131
-46 46 -92 87 -103 91 -24 7 -21 65 7 123 11 24 19 49 16 56 -7 19 17 35 66
41 25 3 49 10 54 15 6 6 9 40 8 78 -3 76 -17 68 121 74 42 1 77 0 77 -4 0 -11
38 -10 61 2 16 9 21 7 29 -15 16 -41 12 -168 -5 -191 -8 -10 -14 -26 -14 -34
-1 -8 7 -1 15 17 20 40 44 51 44 20 0 -42 17 -51 23 -12 6 37 22 65 37 65 5 0
13 -22 20 -49 6 -27 21 -57 32 -67 19 -18 19 -18 11 11 -10 36 -9 105 1 160
l8 40 19 -24 c24 -30 33 -23 19 15 -6 15 -9 39 -5 51 6 25 -16 133 -41 200
-13 35 -22 44 -52 53 -20 5 -42 10 -48 10 -6 0 -17 7 -24 15 -7 8 -20 15 -29
15 -9 0 -21 10 -26 23 -6 12 -17 22 -25 22 -8 0 -20 7 -26 14 -10 13 -15 13
-37 -2 -32 -21 -67 -22 -93 -2 -23 17 -49 18 -88 0z m422 -1094 c2 -12 -4 -38
-12 -56 -25 -53 -24 -115 3 -153 12 -18 27 -32 32 -32 5 0 9 -7 9 -15 0 -7 8
-18 17 -24 10 -5 15 -13 11 -16 -8 -9 -72 39 -91 68 -8 12 -20 39 -26 60 -11
33 -10 41 8 73 28 46 27 49 -9 24 l-30 -21 0 75 0 75 43 -18 c29 -12 43 -25
45 -40z m-1138 -30 c0 -10 -26 -9 -36 2 -4 4 2 7 14 7 12 0 22 -4 22 -9z m231
-25 c9 -26 18 -33 36 -32 12 0 23 7 23 14 0 6 5 12 11 12 6 0 9 -8 7 -17 -2
-12 -14 -19 -36 -21 -39 -4 -57 8 -71 49 -8 23 -7 29 4 29 7 0 19 -15 26 -34z
m-250 -8 c0 -10 2 -10 6 0 8 19 23 14 23 -8 0 -11 -3 -20 -6 -20 -13 0 -44 21
-44 30 0 15 20 12 21 -2z m396 -10 c-3 -8 -6 -5 -6 6 -1 11 2 17 5 13 3 -3 4
-12 1 -19z m813 -100 c0 -50 -15 -56 -40 -16 -23 38 -25 66 -8 104 l13 27 17
-39 c10 -21 18 -56 18 -76z m-960 62 c8 -5 11 -10 5 -10 -5 0 -17 5 -25 10 -8
5 -10 10 -5 10 6 0 17 -5 25 -10z m39 -78 c5 -10 6 -24 2 -31 -6 -9 -13 -5
-24 13 -21 31 -21 36 -2 36 8 0 19 -8 24 -18z m976 -101 c-3 -6 -11 -11 -17
-11 -6 0 -6 6 2 15 14 17 26 13 15 -4z"/>
<path d="M1125 1490 c10 -11 20 -20 23 -20 3 0 -3 9 -13 20 -10 11 -20 20 -23
20 -3 0 3 -9 13 -20z"/>
<path d="M1615 1505 c-5 -2 -35 -6 -66 -10 -31 -3 -65 -13 -75 -21 -17 -12 -5
-14 101 -10 102 3 120 6 123 20 2 10 -3 16 -15 16 -10 0 -27 2 -38 5 -11 2
-24 2 -30 0z"/>
<path d="M1161 1413 c0 -21 5 -36 17 -42 15 -9 15 -12 2 -21 -9 -6 -10 -10 -3
-10 20 0 27 22 10 34 -8 7 -17 25 -20 41 l-4 30 -2 -32z"/>
<path d="M1608 1421 c-6 -22 -10 -23 -57 -17 -28 4 -51 4 -51 2 0 -10 112 -38
119 -30 4 5 5 23 1 39 -6 29 -6 29 -12 6z"/>
<path d="M1731 1438 c-1 -4 15 -42 34 -85 19 -43 35 -73 35 -67 0 13 -68 163
-69 152z"/>
<path d="M1630 1259 c0 -11 25 -22 39 -17 6 1 -1 8 -14 15 -14 6 -25 7 -25 2z"/>
<path d="M1071 1194 c0 -11 3 -14 6 -6 3 7 2 16 -1 19 -3 4 -6 -2 -5 -13z"/>
<path d="M1052 1142 c-11 -25 -11 -25 4 -10 9 9 15 21 13 27 -2 6 -10 -2 -17
-17z"/>
<path d="M746 803 c-4 -5 -24 -8 -44 -8 -28 0 -37 -5 -40 -19 -2 -10 1 -23 8
-30 9 -8 10 -4 5 17 -6 23 -4 27 13 27 28 0 36 -16 15 -29 -10 -6 -13 -11 -7
-11 5 0 23 14 39 30 16 17 26 30 24 30 -3 0 -9 -3 -13 -7z"/>
<path d="M1848 553 c7 -3 16 -2 19 1 4 3 -2 6 -13 5 -11 0 -14 -3 -6 -6z"/>
<path d="M1808 543 c7 -3 16 -2 19 1 4 3 -2 6 -13 5 -11 0 -14 -3 -6 -6z"/>
</g>
</svg>
